ffmpeg started on 2025-06-05 at 20:17:46
Report written to "D:\Convert\FFMetrics\reports\ssim_report-6.txt"
Log level: 32
Command line:
ffmpeg -hide_banner -nostdin -i "G:\\\xc0\xed\xe8\xec\xe5\\\xce\xed\xe3\xee\xe8\xed\xe3\xe8\\!_36_\xce\xf1\xe5\xed\xfc_2024\\DreamCast\\\xcd\xe5\xe3\xe0\xf2\xe8\xe2\xed\xfb\xe9 \xef\xee\xe7\xe8\xf2\xe8\xe2\xed\xfb\xe9 \xf0\xfb\xe1\xe0\xea\\[DC] NegaPosi Angler - 05_Telegram_HEVC.mkv" -i "G:\\\xc0\xed\xe8\xec\xe5\\\xce\xed\xe3\xee\xe8\xed\xe3\xe8\\!_36_\xce\xf1\xe5\xed\xfc_2024\\DreamCast\\\xcd\xe5\xe3\xe0\xf2\xe8\xe2\xed\xfb\xe9 \xef\xee\xe7\xe8\xf2\xe8\xe2\xed\xfb\xe9 \xf0\xfb\xe1\xe0\xea\\[DC] NegaPosi Angler - 05_Telegram.mp4" -lavfi "[0:v]settb=AVTB,setpts=PTS-STARTPTS,format=pix_fmts=yuv420p10,fps=24000/1001,scale=1920:1080:flags=bicubic[main];[1:v]settb=AVTB,setpts=PTS-STARTPTS,format=pix_fmts=yuv420p,fps=24000/1001,scale=1920:1080:flags=bicubic[ref];[main][ref]ssim=eof_action=endall:stats_file='D\\:/Convert/FFMetrics/logs/ssim_logfile-6.txt'" -f null -
Input #0, matroska,webm, from 'G:\Аниме\Онгоинги\!_36_Осень_2024\DreamCast\Негативный позитивный рыбак\[DC] NegaPosi Angler - 05_Telegram_HEVC.mkv':
  Metadata:
    COMPATIBLE_BRANDS: isomiso2avc1mp41
    MAJOR_BRAND     : isom
    MINOR_VERSION   : 512
    ENCODER         : Lavf61.7.100
  Duration: 00:23:46.69, start: -0.021000, bitrate: 1247 kb/s
  Stream #0:0: Video: hevc (Main 10), yuv420p10le(tv, bt709, progressive), 1920x1080 [SAR 1:1 DAR 16:9], 23.98 fps, 23.98 tbr, 1k tbn (default)
      Metadata:
        HANDLER_NAME    : VideoHandler
        VENDOR_ID       : [0][0][0][0]
        ENCODER         : Lavc61.19.100 libx265
        BPS             : 1050268
        DURATION        : 00:23:46.508708333
        NUMBER_OF_FRAMES: 34202
        NUMBER_OF_BYTES : 187277128
        _STATISTICS_WRITING_APP: mkvpropedit v66.0.0 ('Josie') 64-bit
        _STATISTICS_WRITING_DATE_UTC: 2025-05-31 13:09:51
        _STATISTICS_TAGS: BPS DURATION NUMBER_OF_FRAMES NUMBER_OF_BYTES
  Stream #0:1: Audio: aac (LC), 48000 Hz, stereo, fltp (default)
      Metadata:
        HANDLER_NAME    : SoundHandler
        VENDOR_ID       : [0][0][0][0]
        ENCODER         : Lavc61.19.100 aac
        BPS             : 193330
        DURATION        : 00:23:46.688000000
        NUMBER_OF_FRAMES: 66877
        NUMBER_OF_BYTES : 34477859
        _STATISTICS_WRITING_APP: mkvpropedit v66.0.0 ('Josie') 64-bit
        _STATISTICS_WRITING_DATE_UTC: 2025-05-31 13:09:51
        _STATISTICS_TAGS: BPS DURATION NUMBER_OF_FRAMES NUMBER_OF_BYTES
Input #1, mov,mp4,m4a,3gp,3g2,mj2, from 'G:\Аниме\Онгоинги\!_36_Осень_2024\DreamCast\Негативный позитивный рыбак\[DC] NegaPosi Angler - 05_Telegram.mp4':
  Metadata:
    major_brand     : isom
    minor_version   : 512
    compatible_brands: isomiso2avc1mp41
    encoder         : Lavf61.1.100
  Duration: 00:23:46.63, start: 0.000000, bitrate: 3801 kb/s
  Stream #1:0[0x1](und): Video: h264 (High) (avc1 / 0x31637661), yuv420p(tv, bt709, progressive), 1920x1080 [SAR 1:1 DAR 16:9], 3653 kb/s, 23.98 fps, 23.98 tbr, 24k tbn (default)
      Metadata:
        handler_name    : VideoHandler
        vendor_id       : [0][0][0][0]
        encoder         : Lavc61.3.100 h264_qsv
  Stream #1:1[0x2](und): Audio: aac (HE-AACv2) (mp4a / 0x6134706D), 48000 Hz, stereo, fltp, 144 kb/s (default)
      Metadata:
        handler_name    : SoundHandler
        vendor_id       : [0][0][0][0]
Stream mapping:
  Stream #0:0 (hevc) -> settb:default
  Stream #1:0 (h264) -> settb:default
  ssim:default -> Stream #0:0 (wrapped_avframe)
  Stream #0:1 -> #0:1 (aac (native) -> pcm_s16le (native))
Output #0, null, to 'pipe:':
  Metadata:
    COMPATIBLE_BRANDS: isomiso2avc1mp41
    MAJOR_BRAND     : isom
    MINOR_VERSION   : 512
    encoder         : Lavf61.7.100
  Stream #0:0: Video: wrapped_avframe, yuv420p10le(tv, bt709, progressive), 1920x1080 [SAR 1:1 DAR 16:9], q=2-31, 200 kb/s, 23.98 fps, 23.98 tbn
      Metadata:
        encoder         : Lavc61.19.100 wrapped_avframe
  Stream #0:1: Audio: pcm_s16le, 48000 Hz, stereo, s16, 1536 kb/s (default)
      Metadata:
        HANDLER_NAME    : SoundHandler
        VENDOR_ID       : [0][0][0][0]
        _STATISTICS_TAGS: BPS DURATION NUMBER_OF_FRAMES NUMBER_OF_BYTES
        BPS             : 193330
        DURATION        : 00:23:46.688000000
        NUMBER_OF_FRAMES: 66877
        NUMBER_OF_BYTES : 34477859
        _STATISTICS_WRITING_APP: mkvpropedit v66.0.0 ('Josie') 64-bit
        _STATISTICS_WRITING_DATE_UTC: 2025-05-31 13:09:51
        encoder         : Lavc61.19.100 pcm_s16le
frame=  170 fps=0.0 q=-0.0 size=N/A time=00:00:07.09 bitrate=N/A speed=13.9x    frame=  419 fps=412 q=-0.0 size=N/A time=00:00:17.47 bitrate=N/A speed=17.2x    frame=  676 fps=438 q=-0.0 size=N/A time=00:00:28.19 bitrate=N/A speed=18.3x    frame=  921 fps=449 q=-0.0 size=N/A time=00:00:38.41 bitrate=N/A speed=18.7x    frame= 1192 fps=463 q=-0.0 size=N/A time=00:00:49.71 bitrate=N/A speed=19.3x    frame= 1427 fps=463 q=-0.0 size=N/A time=00:00:59.51 bitrate=N/A speed=19.3x    frame= 1653 fps=459 q=-0.0 size=N/A time=00:01:08.94 bitrate=N/A speed=19.1x    frame= 1903 fps=461 q=-0.0 size=N/A time=00:01:19.37 bitrate=N/A speed=19.2x    frame= 2151 fps=462 q=-0.0 size=N/A time=00:01:29.71 bitrate=N/A speed=19.3x    frame= 2363 fps=458 q=-0.0 size=N/A time=00:01:38.55 bitrate=N/A speed=19.1x    frame= 2587 fps=455 q=-0.0 size=N/A time=00:01:47.89 bitrate=N/A speed=  19x    frame= 2770 fps=447 q=-0.0 size=N/A time=00:01:55.53 bitrate=N/A speed=18.6x    frame= 2981 fps=444 q=-0.0 size=N/A time=00:02:04.33 bitrate=N/A speed=18.5x    frame= 3195 fps=442 q=-0.0 size=N/A time=00:02:13.25 bitrate=N/A speed=18.4x    frame= 3420 fps=441 q=-0.0 size=N/A time=00:02:22.64 bitrate=N/A speed=18.4x    frame= 3565 fps=432 q=-0.0 size=N/A time=00:02:28.69 bitrate=N/A speed=  18x    frame= 3744 fps=427 q=-0.0 size=N/A time=00:02:36.15 bitrate=N/A speed=17.8x    frame= 3935 fps=424 q=-0.0 size=N/A time=00:02:44.12 bitrate=N/A speed=17.7x    frame= 4142 fps=422 q=-0.0 size=N/A time=00:02:52.75 bitrate=N/A speed=17.6x    frame= 4320 fps=419 q=-0.0 size=N/A time=00:03:00.18 bitrate=N/A speed=17.5x    frame= 4517 fps=417 q=-0.0 size=N/A time=00:03:08.39 bitrate=N/A speed=17.4x    frame= 4710 fps=415 q=-0.0 size=N/A time=00:03:16.44 bitrate=N/A speed=17.3x    frame= 4903 fps=413 q=-0.0 size=N/A time=00:03:24.49 bitrate=N/A speed=17.2x    frame= 5098 fps=412 q=-0.0 size=N/A time=00:03:32.62 bitrate=N/A speed=17.2x    frame= 5283 fps=409 q=-0.0 size=N/A time=00:03:40.34 bitrate=N/A speed=17.1x    frame= 5452 fps=406 q=-0.0 size=N/A time=00:03:47.39 bitrate=N/A speed=  17x    frame= 5635 fps=404 q=-0.0 size=N/A time=00:03:55.02 bitrate=N/A speed=16.9x    frame= 5871 fps=406 q=-0.0 size=N/A time=00:04:04.86 bitrate=N/A speed=16.9x    frame= 6088 fps=406 q=-0.0 size=N/A time=00:04:13.92 bitrate=N/A speed=16.9x    frame= 6283 fps=406 q=-0.0 size=N/A time=00:04:22.05 bitrate=N/A speed=16.9x    frame= 6517 fps=407 q=-0.0 size=N/A time=00:04:31.81 bitrate=N/A speed=  17x    frame= 6737 fps=408 q=-0.0 size=N/A time=00:04:40.98 bitrate=N/A speed=  17x    frame= 6964 fps=409 q=-0.0 size=N/A time=00:04:50.45 bitrate=N/A speed=  17x    frame= 7205 fps=410 q=-0.0 size=N/A time=00:05:00.50 bitrate=N/A speed=17.1x    frame= 7462 fps=413 q=-0.0 size=N/A time=00:05:11.22 bitrate=N/A speed=17.2x    frame= 7689 fps=414 q=-0.0 size=N/A time=00:05:20.69 bitrate=N/A speed=17.3x    frame= 7915 fps=414 q=-0.0 size=N/A time=00:05:30.12 bitrate=N/A speed=17.3x    frame= 8141 fps=415 q=-0.0 size=N/A time=00:05:39.54 bitrate=N/A speed=17.3x    frame= 8367 fps=415 q=-0.0 size=N/A time=00:05:48.97 bitrate=N/A speed=17.3x    frame= 8560 fps=415 q=-0.0 size=N/A time=00:05:57.02 bitrate=N/A speed=17.3x    frame= 8733 fps=413 q=-0.0 size=N/A time=00:06:04.23 bitrate=N/A speed=17.2x    frame= 8940 fps=412 q=-0.0 size=N/A time=00:06:12.87 bitrate=N/A speed=17.2x    frame= 9190 fps=414 q=-0.0 size=N/A time=00:06:23.29 bitrate=N/A speed=17.3x    frame= 9401 fps=414 q=-0.0 size=N/A time=00:06:32.10 bitrate=N/A speed=17.3x    frame= 9616 fps=414 q=-0.0 size=N/A time=00:06:41.06 bitrate=N/A speed=17.3x    frame= 9859 fps=415 q=-0.0 size=N/A time=00:06:51.20 bitrate=N/A speed=17.3x    frame=10083 fps=415 q=-0.0 size=N/A time=00:07:00.54 bitrate=N/A speed=17.3x    frame=10310 fps=416 q=-0.0 size=N/A time=00:07:10.01 bitrate=N/A speed=17.3x    frame=10541 fps=417 q=-0.0 size=N/A time=00:07:19.64 bitrate=N/A speed=17.4x    frame=10797 fps=418 q=-0.0 size=N/A time=00:07:30.32 bitrate=N/A speed=17.4x    frame=11068 fps=420 q=-0.0 size=N/A time=00:07:41.62 bitrate=N/A speed=17.5x    frame=11317 fps=422 q=-0.0 size=N/A time=00:07:52.01 bitrate=N/A speed=17.6x    frame=11583 fps=423 q=-0.0 size=N/A time=00:08:03.10 bitrate=N/A speed=17.7x    frame=11860 fps=425 q=-0.0 size=N/A time=00:08:14.66 bitrate=N/A speed=17.7x    frame=12115 fps=427 q=-0.0 size=N/A time=00:08:25.29 bitrate=N/A speed=17.8x    frame=12380 fps=428 q=-0.0 size=N/A time=00:08:36.34 bitrate=N/A speed=17.9x    frame=12650 fps=430 q=-0.0 size=N/A time=00:08:47.61 bitrate=N/A speed=17.9x    frame=12848 fps=429 q=-0.0 size=N/A time=00:08:55.86 bitrate=N/A speed=17.9x    frame=13080 fps=429 q=-0.0 size=N/A time=00:09:05.54 bitrate=N/A speed=17.9x    frame=13291 fps=429 q=-0.0 size=N/A time=00:09:14.34 bitrate=N/A speed=17.9x    frame=13515 fps=429 q=-0.0 size=N/A time=00:09:23.68 bitrate=N/A speed=17.9x    frame=13737 fps=429 q=-0.0 size=N/A time=00:09:32.94 bitrate=N/A speed=17.9x    frame=13955 fps=429 q=-0.0 size=N/A time=00:09:42.03 bitrate=N/A speed=17.9x    frame=14200 fps=429 q=-0.0 size=N/A time=00:09:52.25 bitrate=N/A speed=17.9x    frame=14422 fps=430 q=-0.0 size=N/A time=00:10:01.51 bitrate=N/A speed=17.9x    frame=14664 fps=430 q=-0.0 size=N/A time=00:10:11.61 bitrate=N/A speed=17.9x    frame=14900 fps=431 q=-0.0 size=N/A time=00:10:21.45 bitrate=N/A speed=  18x    frame=15109 fps=430 q=-0.0 size=N/A time=00:10:30.17 bitrate=N/A speed=17.9x    frame=15348 fps=431 q=-0.0 size=N/A time=00:10:40.13 bitrate=N/A speed=  18x    frame=15593 fps=431 q=-0.0 size=N/A time=00:10:50.35 bitrate=N/A speed=  18x    frame=15849 fps=432 q=-0.0 size=N/A time=00:11:01.03 bitrate=N/A speed=  18x    frame=16056 fps=432 q=-0.0 size=N/A time=00:11:09.66 bitrate=N/A speed=  18x    frame=16260 fps=431 q=-0.0 size=N/A time=00:11:18.17 bitrate=N/A speed=  18x    frame=16484 fps=431 q=-0.0 size=N/A time=00:11:27.52 bitrate=N/A speed=  18x    frame=16732 fps=432 q=-0.0 size=N/A time=00:11:37.86 bitrate=N/A speed=  18x    frame=16961 fps=432 q=-0.0 size=N/A time=00:11:47.41 bitrate=N/A speed=  18x    frame=17202 fps=433 q=-0.0 size=N/A time=00:11:57.46 bitrate=N/A speed=  18x    frame=17438 fps=433 q=-0.0 size=N/A time=00:12:07.30 bitrate=N/A speed=18.1x    frame=17652 fps=433 q=-0.0 size=N/A time=00:12:16.23 bitrate=N/A speed=18.1x    frame=17877 fps=433 q=-0.0 size=N/A time=00:12:25.61 bitrate=N/A speed=18.1x    frame=18097 fps=433 q=-0.0 size=N/A time=00:12:34.79 bitrate=N/A speed=  18x    frame=18374 fps=434 q=-0.0 size=N/A time=00:12:46.34 bitrate=N/A speed=18.1x    frame=18623 fps=434 q=-0.0 size=N/A time=00:12:56.73 bitrate=N/A speed=18.1x    frame=18873 fps=435 q=-0.0 size=N/A time=00:13:07.16 bitrate=N/A speed=18.1x    frame=19084 fps=435 q=-0.0 size=N/A time=00:13:15.96 bitrate=N/A speed=18.1x    frame=19329 fps=435 q=-0.0 size=N/A time=00:13:26.18 bitrate=N/A speed=18.1x    frame=19546 fps=435 q=-0.0 size=N/A time=00:13:35.23 bitrate=N/A speed=18.1x    frame=19785 fps=435 q=-0.0 size=N/A time=00:13:45.19 bitrate=N/A speed=18.2x    frame=20029 fps=436 q=-0.0 size=N/A time=00:13:55.37 bitrate=N/A speed=18.2x    frame=20279 fps=436 q=-0.0 size=N/A time=00:14:05.80 bitrate=N/A speed=18.2x    frame=20478 fps=436 q=-0.0 size=N/A time=00:14:14.10 bitrate=N/A speed=18.2x    frame=20696 fps=436 q=-0.0 size=N/A time=00:14:23.19 bitrate=N/A speed=18.2x    frame=20906 fps=435 q=-0.0 size=N/A time=00:14:31.95 bitrate=N/A speed=18.2x    frame=21141 fps=435 q=-0.0 size=N/A time=00:14:41.75 bitrate=N/A speed=18.2x    frame=21373 fps=436 q=-0.0 size=N/A time=00:14:51.43 bitrate=N/A speed=18.2x    frame=21605 fps=436 q=-0.0 size=N/A time=00:15:01.10 bitrate=N/A speed=18.2x    frame=21810 fps=435 q=-0.0 size=N/A time=00:15:09.65 bitrate=N/A speed=18.2x    frame=22037 fps=435 q=-0.0 size=N/A time=00:15:19.12 bitrate=N/A speed=18.2x    frame=22253 fps=435 q=-0.0 size=N/A time=00:15:28.13 bitrate=N/A speed=18.1x    frame=22470 fps=435 q=-0.0 size=N/A time=00:15:37.18 bitrate=N/A speed=18.1x    frame=22664 fps=434 q=-0.0 size=N/A time=00:15:45.27 bitrate=N/A speed=18.1x    frame=22889 fps=434 q=-0.0 size=N/A time=00:15:54.66 bitrate=N/A speed=18.1x    frame=23118 fps=434 q=-0.0 size=N/A time=00:16:04.21 bitrate=N/A speed=18.1x    frame=23325 fps=434 q=-0.0 size=N/A time=00:16:12.84 bitrate=N/A speed=18.1x    frame=23566 fps=434 q=-0.0 size=N/A time=00:16:22.89 bitrate=N/A speed=18.1x    frame=23825 fps=435 q=-0.0 size=N/A time=00:16:33.70 bitrate=N/A speed=18.1x    frame=24080 fps=436 q=-0.0 size=N/A time=00:16:44.33 bitrate=N/A speed=18.2x    frame=24345 fps=436 q=-0.0 size=N/A time=00:16:55.38 bitrate=N/A speed=18.2x    frame=24611 fps=437 q=-0.0 size=N/A time=00:17:06.48 bitrate=N/A speed=18.2x    frame=24875 fps=438 q=-0.0 size=N/A time=00:17:17.49 bitrate=N/A speed=18.3x    frame=25099 fps=438 q=-0.0 size=N/A time=00:17:26.83 bitrate=N/A speed=18.3x    frame=25333 fps=438 q=-0.0 size=N/A time=00:17:36.59 bitrate=N/A speed=18.3x    frame=25538 fps=437 q=-0.0 size=N/A time=00:17:45.14 bitrate=N/A speed=18.2x    frame=25760 fps=437 q=-0.0 size=N/A time=00:17:54.40 bitrate=N/A speed=18.2x    frame=25964 fps=437 q=-0.0 size=N/A time=00:18:02.91 bitrate=N/A speed=18.2x    frame=26193 fps=437 q=-0.0 size=N/A time=00:18:12.46 bitrate=N/A speed=18.2x    frame=26409 fps=437 q=-0.0 size=N/A time=00:18:21.47 bitrate=N/A speed=18.2x    frame=26637 fps=437 q=-0.0 size=N/A time=00:18:30.98 bitrate=N/A speed=18.2x    frame=26841 fps=437 q=-0.0 size=N/A time=00:18:39.49 bitrate=N/A speed=18.2x    frame=27053 fps=436 q=-0.0 size=N/A time=00:18:48.33 bitrate=N/A speed=18.2x    frame=27296 fps=437 q=-0.0 size=N/A time=00:18:58.47 bitrate=N/A speed=18.2x    frame=27564 fps=437 q=-0.0 size=N/A time=00:19:09.64 bitrate=N/A speed=18.2x    frame=27790 fps=437 q=-0.0 size=N/A time=00:19:19.07 bitrate=N/A speed=18.2x    frame=28010 fps=437 q=-0.0 size=N/A time=00:19:28.25 bitrate=N/A speed=18.2x    frame=28248 fps=437 q=-0.0 size=N/A time=00:19:38.17 bitrate=N/A speed=18.2x    frame=28487 fps=438 q=-0.0 size=N/A time=00:19:48.14 bitrate=N/A speed=18.3x    frame=28729 fps=438 q=-0.0 size=N/A time=00:19:58.23 bitrate=N/A speed=18.3x    frame=28941 fps=438 q=-0.0 size=N/A time=00:20:07.08 bitrate=N/A speed=18.3x    frame=29198 fps=438 q=-0.0 size=N/A time=00:20:17.79 bitrate=N/A speed=18.3x    frame=29447 fps=438 q=-0.0 size=N/A time=00:20:28.18 bitrate=N/A speed=18.3x    frame=29690 fps=439 q=-0.0 size=N/A time=00:20:38.32 bitrate=N/A speed=18.3x    frame=29908 fps=439 q=-0.0 size=N/A time=00:20:47.41 bitrate=N/A speed=18.3x    frame=30172 fps=439 q=-0.0 size=N/A time=00:20:58.42 bitrate=N/A speed=18.3x    frame=30437 fps=440 q=-0.0 size=N/A time=00:21:09.47 bitrate=N/A speed=18.3x    frame=30676 fps=440 q=-0.0 size=N/A time=00:21:19.44 bitrate=N/A speed=18.3x    frame=30938 fps=440 q=-0.0 size=N/A time=00:21:30.37 bitrate=N/A speed=18.4x    frame=31163 fps=440 q=-0.0 size=N/A time=00:21:39.75 bitrate=N/A speed=18.4x    frame=31403 fps=441 q=-0.0 size=N/A time=00:21:49.76 bitrate=N/A speed=18.4x    frame=31659 fps=441 q=-0.0 size=N/A time=00:22:00.44 bitrate=N/A speed=18.4x    frame=31892 fps=441 q=-0.0 size=N/A time=00:22:10.16 bitrate=N/A speed=18.4x    frame=32104 fps=441 q=-0.0 size=N/A time=00:22:19.00 bitrate=N/A speed=18.4x    frame=32379 fps=441 q=-0.0 size=N/A time=00:22:30.47 bitrate=N/A speed=18.4x    frame=32650 fps=442 q=-0.0 size=N/A time=00:22:41.77 bitrate=N/A speed=18.4x    frame=32925 fps=443 q=-0.0 size=N/A time=00:22:53.24 bitrate=N/A speed=18.5x    frame=33180 fps=443 q=-0.0 size=N/A time=00:23:03.88 bitrate=N/A speed=18.5x    frame=33419 fps=443 q=-0.0 size=N/A time=00:23:13.85 bitrate=N/A speed=18.5x    frame=33641 fps=443 q=-0.0 size=N/A time=00:23:23.11 bitrate=N/A speed=18.5x    frame=33869 fps=443 q=-0.0 size=N/A time=00:23:32.61 bitrate=N/A speed=18.5x    frame=34144 fps=444 q=-0.0 size=N/A time=00:23:44.08 bitrate=N/A speed=18.5x    [Parsed_ssim_10 @ 00000204b0062d80] SSIM Y:0.993657 (21.976824) U:0.993416 (21.815303) V:0.993381 (21.792332) All:0.993571 (21.918381)
[out#0/null @ 00000204b0014c00] video:14696KiB audio:267508KiB subtitle:0KiB other streams:0KiB global headers:0KiB muxing overhead: unknown
frame=34202 fps=444 q=-0.0 Lsize=N/A time=00:23:46.50 bitrate=N/A speed=18.5x    
